<svg width="75" height="75" viewBox="0 0 75 75" fill="none" xmlns="http://www.w3.org/2000/svg">
<g clip-path="url(#clip0_17_2)">
<path d="M48.7536 73.3046C43.9659 74.8147 39.1182 75.3886 34.171 74.907C26.0164 74.1131 18.8616 70.9742 12.7262 65.545C7.94127 61.3107 4.43447 56.1898 2.2457 50.175C1.05877 46.9134 0.362098 43.5555 0.103552 40.0897C-0.176151 36.3404 0.112585 32.6407 0.947767 28.9914C2.02274 24.2943 3.97856 19.9774 6.78789 16.0551C10.4788 10.9021 15.095 6.81185 20.7667 3.9594C25.1607 1.74953 29.7958 0.380252 34.7287 0.0819999C46.7456 -0.644575 56.8727 3.46279 65.0829 12.1856C70.1744 17.595 73.2484 24.091 74.4769 31.4272C75.2755 36.1961 75.167 40.9649 74.1014 45.6827C72.7082 51.851 69.901 57.3225 65.7605 62.1014C62.3447 66.044 58.2601 69.1154 53.5751 71.3939C52.0316 72.1446 50.4419 72.7813 48.7536 73.3046ZM39.0072 11.4576C37.0104 11.2544 35.0232 11.4399 33.0708 11.7977C25.9198 13.1079 20.1832 16.7426 16.082 22.7356C11.2934 29.7331 10.0731 37.4015 12.6949 45.4951C14.979 52.5462 19.6019 57.7017 26.2623 60.9531C31.9828 63.7457 37.9853 64.3527 44.1217 62.6909C51.4831 60.6974 56.9945 56.2682 60.5929 49.5221C63.3615 44.3318 64.2171 38.7864 63.21 33.0211C62.2028 27.2559 59.4851 22.3539 55.1764 18.3632C50.6419 14.1635 45.2928 11.8607 39.0072 11.4576ZM17.9956 13.9652C19.5013 12.7526 21.1119 11.7031 22.8403 10.8352C23.8748 10.3157 24.2387 9.34506 23.7531 8.41879C23.3594 7.66797 22.3314 7.42001 21.4086 7.90355C20.6408 8.30584 19.8918 8.74768 19.1559 9.20651C15.03 11.7792 11.6546 15.1166 9.04501 19.2216C8.47706 20.115 8.69054 21.1593 9.48292 21.6172C10.3251 22.1038 11.3401 21.7953 11.8721 20.8972C13.4559 18.2232 15.5224 15.9739 17.9956 13.9652Z" fill="#FAE500"/>
<path d="M22.177 40.4367C21.8218 39.193 22.2113 38.1835 23.0674 37.3865C23.9183 36.5945 24.9468 36.2534 26.1206 36.6438C26.5535 36.7877 26.9149 37.0265 27.2208 37.3692C29.0151 39.3788 30.9135 41.2897 32.781 43.2301C33.1906 43.6556 33.4531 43.6573 33.846 43.2115C38.4728 37.9613 43.1137 32.7235 47.7509 27.4825C47.9195 27.2919 48.0849 27.0983 48.2572 26.9111C49.4064 25.6619 51.0567 25.5971 52.3298 26.7497C53.5437 27.8487 53.6574 29.5673 52.5847 30.7807C47.5853 36.4357 42.5838 42.0889 37.5807 47.7406C36.8218 48.5978 36.0694 49.4621 35.2802 50.2909C34.237 51.3865 32.5385 51.4051 31.4687 50.3177C28.5689 47.3702 25.6894 44.4026 22.7996 41.4452C22.5277 41.1669 22.3223 40.852 22.177 40.4367Z" fill="#00FF4D"/>
</g>
<defs>
<clipPath id="clip0_17_2">
<rect width="75" height="75" fill="white"/>
</clipPath>
</defs>
</svg>
